<svg width="1566" height="1020" viewBox="0 0 1566 1020" fill="none" xmlns="http://www.w3.org/2000/svg">
<path d="M798.448 237C800.225 240.333 801.225 243.333 801.446 246C801.891 248.667 802.112 252.555 802.112 257.667V442.667C802.112 458 797.894 467 789.456 469.667C785.238 471 779.909 471.667 773.469 471.667C767.03 471.667 761.924 471.112 758.149 470C754.374 468.888 751.488 467.555 749.49 466C747.491 464.445 745.938 462.222 744.827 459.333C743.716 455.555 743.162 449.778 743.162 442V330.333C737.611 337.222 729.506 348.222 718.849 363.333C708.191 378.222 701.418 387.555 698.532 391.333C695.647 395.111 693.648 397.778 692.538 399.333C691.427 400.667 688.653 402.667 684.211 405.333C679.993 407.778 675.33 409 670.223 409C665.339 409 660.786 407.888 656.568 405.667C652.571 403.222 649.685 400.888 647.908 398.667L645.244 395C640.803 389.445 632.034 377.667 618.933 359.667C605.832 341.445 598.728 331.667 597.617 330.333V442.667C597.617 447.778 597.396 451.667 596.951 454.333C596.73 456.778 595.731 459.555 593.954 462.667C590.623 468.667 581.964 471.667 567.976 471.667C554.432 471.667 545.994 468.667 542.664 462.667C540.887 459.555 539.778 456.667 539.333 454C539.112 451.333 539 447.333 539 442V257C539 251.889 539.112 248.111 539.333 245.667C539.778 243 540.887 240 542.664 236.667C545.994 230.889 554.653 228 568.642 228C574.637 228 579.744 228.778 583.962 230.333C588.404 231.667 591.289 233.111 592.622 234.667L594.62 236.667L670.223 336C707.97 286 733.17 253 745.826 237C749.601 231 758.482 228 772.47 228C786.68 228 795.339 231 798.448 237ZM942.7 315C944.032 302.555 952.803 296.333 969.011 296.333C977.67 296.333 984.11 297 988.328 298.333C992.546 299.667 995.434 302 996.987 305.333C998.764 308.667 999.763 311.667 999.985 314.333C1000.43 316.778 1000.65 320.555 1000.65 325.667V442.333C1000.65 447.445 1000.43 451.333 999.985 454C999.763 456.445 998.874 459.333 997.32 462.667C994.211 468.445 986.551 471.333 974.34 471.333C962.35 471.333 954.245 469.888 950.027 467C946.03 463.888 943.699 459.445 943.033 453.667C934.818 465.445 921.051 471.333 901.734 471.333C882.638 471.333 864.877 462.555 848.446 445C832.014 427.445 823.8 407.112 823.8 384C823.8 360.667 832.014 340.333 848.446 323C865.098 305.445 883.305 296.667 903.066 296.667C910.615 296.667 917.499 298 923.716 300.667C929.932 303.333 934.262 305.889 936.705 308.333C939.148 310.555 941.146 312.778 942.7 315ZM882.084 384.333C882.084 391.667 884.97 398.333 890.743 404.333C896.517 410.112 903.511 413 911.726 413C919.94 413 926.713 410 932.042 404C937.592 398 940.368 391.445 940.368 384.333C940.368 377 937.704 370.222 932.375 364C927.268 357.778 920.273 354.667 911.393 354.667C902.733 354.667 895.628 357.778 890.077 364C884.748 370.222 882.084 377 882.084 384.333ZM1028.53 456.333C1024.31 453.667 1022.2 449.445 1022.2 443.667C1022.2 437.888 1026.42 429.112 1034.86 417.333C1037.3 413.555 1041.18 411.667 1046.51 411.667C1052.06 411.667 1059.5 414.445 1068.83 420C1078.15 425.333 1086.59 428 1094.14 428C1107.68 428 1114.46 425.333 1114.46 420C1114.46 415.778 1107.02 412.667 1092.14 410.667C1078.15 408.667 1064.28 403.445 1050.51 395C1044.07 391 1038.74 384.778 1034.52 376.333C1030.3 367.667 1028.19 357.445 1028.19 345.667C1028.19 310.555 1052.29 293 1100.47 293C1116.23 293 1132.44 296.778 1149.09 304.333C1156.86 307.889 1160.75 312.333 1160.75 317.667C1160.75 323 1158.31 329.555 1153.42 337.333C1148.54 345.111 1143.54 349 1138.44 349C1135.77 349 1130.77 347.333 1123.45 344C1116.34 340.667 1108.57 339 1100.13 339C1087.04 339 1080.48 341.445 1080.48 346.333C1080.48 353 1088.03 357.333 1103.13 359.333C1117.79 360.889 1132 365.111 1145.76 372C1152.2 375.111 1157.53 380.555 1161.75 388.333C1166.19 395.889 1168.41 405.445 1168.41 417C1168.41 428.555 1166.19 438.445 1161.75 446.667C1157.53 454.667 1151.54 460.667 1143.76 464.667C1129.55 471.555 1111.68 475 1090.14 475C1068.83 475 1048.29 468.778 1028.53 456.333ZM1304.05 315C1305.38 302.555 1314.15 296.333 1330.36 296.333C1339.02 296.333 1345.46 297 1349.68 298.333C1353.9 299.667 1356.78 302 1358.34 305.333C1360.11 308.667 1361.11 311.667 1361.33 314.333C1361.78 316.778 1362 320.555 1362 325.667V442.333C1362 447.445 1361.78 451.333 1361.33 454C1361.11 456.445 1360.22 459.333 1358.67 462.667C1355.56 468.445 1347.9 471.333 1335.69 471.333C1323.7 471.333 1315.6 469.888 1311.38 467C1307.38 463.888 1305.05 459.445 1304.38 453.667C1296.17 465.445 1282.4 471.333 1263.08 471.333C1243.99 471.333 1226.23 462.555 1209.79 445C1193.37 427.445 1185.15 407.112 1185.15 384C1185.15 360.667 1193.37 340.333 1209.79 323C1226.45 305.445 1244.66 296.667 1264.42 296.667C1271.97 296.667 1278.85 298 1285.06 300.667C1291.28 303.333 1295.61 305.889 1298.05 308.333C1300.5 310.555 1302.5 312.778 1304.05 315ZM1243.43 384.333C1243.43 391.667 1246.32 398.333 1252.09 404.333C1257.87 410.112 1264.86 413 1273.07 413C1281.29 413 1288.06 410 1293.39 404C1298.94 398 1301.72 391.445 1301.72 384.333C1301.72 377 1299.05 370.222 1293.72 364C1288.62 357.778 1281.62 354.667 1272.74 354.667C1264.08 354.667 1256.98 357.778 1251.43 364C1246.1 370.222 1243.43 377 1243.43 384.333Z" fill="white"/>
<path d="M253.155 308.445C254.062 287.507 271.276 271 292.204 271H412.779C433.708 271 450.921 287.506 451.83 308.443L468.963 703.693C469.467 715.304 464.793 726.538 456.203 734.356L378.783 804.823C363.874 818.393 341.109 818.393 326.202 804.821L248.794 734.354C240.208 726.538 235.534 715.306 236.037 703.697L253.155 308.445Z" fill="url(#paint0_linear_60_117)"/>
<path d="M213.777 283.09C194.898 264.215 204.818 231.915 231.039 226.885L347.229 204.596C351.372 203.801 355.628 203.801 359.771 204.596L475.961 226.885C502.182 231.915 512.102 264.215 493.224 283.09L377.033 399.254C364.036 412.249 342.964 412.249 329.967 399.254L213.777 283.09Z" fill="white"/>
<defs>
<linearGradient id="paint0_linear_60_117" x1="352.501" y1="271" x2="352.501" y2="828.753" gradientUnits="userSpaceOnUse">
<stop stop-color="#E4E4E4"/>
<stop offset="1" stop-color="white"/>
</linearGradient>
</defs>
</svg>
